# AST/ASF file generated using VICON BodyLanguage
# -----------------------------------------------
:version 1.10
:name VICON
:units
  mass 1.0
  length 0.45
  angle deg
:documentation
   .ast/.asf automatically generated from VICON data using
   VICON BodyBuilder and BodyLanguage model FoxedUp or BRILLIANT.MOD
:root
   order TX TY TZ RX RY RZ
   axis XYZ
   position 0 0 0  
   orientation 0 0 0 
:bonedata
  begin
     id 1 
     name lhipjoint
     direction 0.661853 -0.702389 0.261917 
     length 2.64193 
     axis 0 0 0  XYZ
  end
  begin
     id 2 
     name lfemur
     direction 0.34202 -0.939693 0  
     length 7.01722  
     axis 0 0 20  XYZ
    dof rx ry rz
    limits (-160.0 20.0)
           (-70.0 70.0)
           (-60.0 70.0)
  end
  begin
     id 3 
     name ltibia
     direction 0.34202 -0.939693 0   
     length 8.25008   
     axis 0 0 20   XYZ
    dof rx
    limits (-10.0 170.0)
  end
  begin
     id 4 
     name lfoot
     direction 0.0709916 -0.195048 0.978221   
     length 2.31941   
     axis -90 7.62852e-016 20   XYZ
    dof rx rz
    limits (-45.0 90.0)
           (-70.0 20.0)
  end
  begin
     id 5 
     name ltoes
     direction 1.53586e-011 -4.22017e-011 1   
     length 1.16486   
     axis -90 7.62852e-016 20   XYZ
    dof rx
    limits (-90.0 20.0)
  end
  begin
     id 6 
     name rhipjoint
     direction -0.638185 -0.721362 0.268992   
     length 2.57244  
     axis 0 0 0  XYZ 
  end
  begin
     id 7 
     name rfemur
     direction -0.34202 -0.939693 0   
     length 7.07017   
     axis 0 0 -20   XYZ
    dof rx ry rz
    limits (-160.0 20.0)
           (-70.0 70.0)
           (-70.0 60.0)
  end
  begin
     id 8 
     name rtibia
     direction -0.34202 -0.939693 0   
     length 8.20386   
     axis 0 0 -20   XYZ
    dof rx
    limits (-10.0 170.0)
 end
 begin
     id 9 
     name rfoot
     direction -0.0822429 -0.225961 0.970658   
     length 2.32215  
     axis -90 -7.62852e-016 -20   XYZ
    dof rx rz
    limits (-45.0 90.0)
           (-20.0 70.0)
  end
  begin
     id 10 
     name rtoes
     direction -1.53597e-011 -4.21689e-011 1   
     length 1.16333   
     axis -90 -7.62852e-016 -20   XYZ
    dof rx
    limits (-90.0 20.0)
  end
  begin
     id 11 
     name lowerback
     direction -0.0131557 0.998589 -0.0514484   
     length 2.14993   
     axis 0 0 0   XYZ
    dof rx ry rz
    limits (-20.0 45.0)
           (-30.0 30.0)
           (-30.0 30.0)
  end
  begin
     id 12 
     name upperback
     direction -0.000776481 0.999993 0.00352685   
     length 2.15301   
     axis 0 0 0   XYZ
    dof rx ry rz
    limits (-20.0 45.0)
           (-30.0 30.0)
           (-30.0 30.0)
  end
  begin
     id 13 
     name thorax
     direction 0.00438186 0.999609 0.0276143   
     length 2.15424   
     axis 0 0 0   XYZ
    dof rx ry rz
    limits (-20.0 45.0)
           (-30.0 30.0)
           (-30.0 30.0)
  end
  begin
     id 14 
     name lowerneck
     direction -0.0488006 0.998094 0.0377807   
     length 1.90481   
     axis 0 0 0   XYZ
    dof rx ry rz
    limits (-20.0 45.0)
           (-30.0 30.0)
           (-30.0 30.0)
  end
  begin
     id 15 
     name upperneck
     direction 0.0443769 0.990702 -0.12861   
     length 1.91305   
     axis 0 0 0   XYZ
    dof rx ry rz
    limits (-20.0 45.0)
           (-30.0 30.0)
           (-30.0 30.0)
  end
  begin
     id 16
     name head
     direction 0.0165599 0.998647 -0.0492982  
     length 1.92369  
     axis 0 0 0   XYZ
    dof rx ry rz
    limits (-20.0 45.0)
           (-30.0 30.0)
           (-30.0 30.0)
  end
  begin
     id 17 
     name lclavicle
     direction 0.911936 0.410197 -0.0105506  
     length 3.52622  
     axis 0 0 0   XYZ
    dof ry rz
    limits (-20.0 10.0)
           (0.0 20.0)
  end
  begin
     id 18 
     name lhumerus
     direction 1 -4.48974e-011 -2.48591e-028   
     length 5.47651   
     axis 180 -30 -90   XYZ
    dof rx ry rz
    limits (-60.0 90.0)
           (-90.0 90.0)
           (-90.0 90.0)
  end
  begin
     id 19
     name lradius
     direction 1 -4.48938e-011 -4.40099e-027   
     length 3.09058   
     axis 180 -30 -90   XYZ
    dof rx
    limits (-10.0 170.0)
  end
  begin
     id 20
     name lwrist
     direction 1 -4.49042e-011 -2.99852e-027   
     length 1.54529   
     axis 1.95339e-015 90 90   XYZ
    dof ry
    limits (-180.0 0.0)
 end
  begin
     id 21 
     name lhand
     direction 1 -4.48815e-011 -5.98193e-027   
     length 0.771611   
     axis 3.82337e-015 90 90   XYZ
    dof rx rz
    limits (-90.0 90.0)
           (-45.0 45.0)
  end
  begin
     id 22 
     name lfingers
     direction 1 -4.49034e-011 -1.1993e-026   
     length 0.622093   
     axis 7.64668e-015 90 90   XYZ
    dof rx
    limits (0.0 90.0)
  end
  begin
     id 23
     name lthumb
     direction 0.707107 -6.34867e-011 0.707107   
     length 0.893204   
     axis -90 45 -1.62303e-014   XYZ
    dof rx rz
    limits (-45.0 45.0)
           (-45.0 45.0)
  end
  begin
     id 24 
     name rclavicle
     direction -0.93442 0.355634 -0.0195692   
     length 3.62463  
     axis 0 0 0   XYZ 
    dof ry rz
    limits (-10.0 20.0)
           (-20.0 0.0)
  end
  begin
     id 25 
     name rhumerus
     direction -1 -4.48957e-011 -1.19147e-027  
     length 5.14182   
     axis 180 30 90   XYZ
    dof rx ry rz
    limits (-90.0 60.0)
           (-90.0 90.0)
           (-90.0 90.0)
  end
  begin
     id 26 
     name rradius
     direction -1 -4.48952e-011 -3.81062e-027   
     length 3.35565   
     axis 180 30 90   XYZ
    dof rx
    limits (-10.0 170.0)
  end
  begin
     id 27 
     name rwrist
     direction -1 -4.48973e-011 -2.99621e-027   
     length 1.67782   
     axis 1.95339e-015 -90 -90   XYZ
    dof ry
    limits (-180.0 0.0)
  end
  begin
     id 28
     name rhand
     direction -1 -4.48895e-011 -5.98727e-027   
     length 0.801042   
     axis 3.82337e-015 -90 -90   XYZ
    dof rx rz
    limits (-90.0 90.0)
           (-45.0 45.0)
  end
  begin
     id 29
     name rfingers
     direction -1 -4.49065e-011 -1.19972e-026   
     length 0.645821   
     axis 7.64668e-015 -90 -90   XYZ
    dof rx
    limits (0.0 90.0)
  end
  begin
     id 30
     name rthumb
     direction -0.707107 -6.34957e-011 0.707107   
     length 0.927273   
     axis -90 -45 1.62303e-014   XYZ
    dof rx rz
    limits (-45.0 45.0)
           (-45.0 45.0)
  end
:hierarchy
  begin
    root lhipjoint rhipjoint lowerback
    lhipjoint lfemur
    lfemur ltibia
    ltibia lfoot
    lfoot ltoes
    rhipjoint rfemur
    rfemur rtibia
    rtibia rfoot
    rfoot rtoes
    lowerback upperback
    upperback thorax
    thorax lowerneck lclavicle rclavicle
    lowerneck upperneck
    upperneck head
    lclavicle lhumerus
    lhumerus lradius
    lradius lwrist
    lwrist lhand lthumb
    lhand lfingers
    rclavicle rhumerus
    rhumerus rradius
    rradius rwrist
    rwrist rhand rthumb
    rhand rfingers
  end

#!OML:ASF E:\Style4\Style4.ASF
:FULLY-SPECIFIED
:DEGREES
360
root -0.472155 18.0543 -2.00383 -0.897185 -2.04828 0.544218
lowerback 4.13383 3.89723 -3.52335
upperback 2.44577 5.05961 -3.34591
thorax 0.20639 2.51541 -1.66812
lowerneck 0.689121 -4.595 -5.85442
upperneck 9.78087 -5.99066 -0.117955
head 3.21917 -3.17514 0.806452
rclavicle 5.02925e-014 -7.15625e-014
rhumerus 56.2422 -29.5668 -30.8335
rradius 61.7436
rwrist -62.1789
rhand -26.425 7.93166
rfingers 7.12502
rthumb 0.135265 -22.048
lclavicle 5.02925e-014 -7.15625e-014
lhumerus -47.6143 -43.9516 99.8843
lradius 106.173
lwrist 35.3063
lhand -11.2928 27.0681
lfingers 7.12502
lthumb 14.7385 56.5242
rfemur -6.46858 3.91199 19.2188
rtibia 21.331
rfoot -13.2855 -12.6635
rtoes -10.23
lfemur -2.79183 -1.75776 -18.8718
ltibia 19.3199
lfoot -16.5365 13.5975
ltoes -12.7259
361
root -0.473688 18.0544 -2.00652 -0.821721 -1.98528 0.506888
lowerback 4.11463 3.88154 -3.4402
upperback 2.42097 5.04182 -3.32356
thorax 0.196344 2.50752 -1.68976
lowerneck 0.598343 -4.57242 -5.91759
upperneck 9.94493 -5.95958 -0.0162062
head 3.29878 -3.16155 0.847322
rclavicle -2.127e-014 3.18055e-015
rhumerus 56.226 -29.5426 -30.7432
rradius 61.6118
rwrist -62.3701
rhand -26.5667 7.94897
rfingers 7.12502
rthumb -0.00160892 -22.0308
lclavicle -2.127e-014 3.18055e-015
lhumerus -47.5352 -44.0298 99.8383
lradius 106.202
lwrist 35.3004
lhand -11.274 27.0085
lfingers 7.12502
lthumb 14.7565 56.4632
rfemur -6.55312 3.92874 19.2604
rtibia 21.3379
rfoot -13.295 -12.7068
rtoes -9.93127
lfemur -2.9237 -1.78976 -18.8237
ltibia 19.3639
lfoot -16.5513 13.6484
ltoes -12.9954
362
root -0.473833 18.0538 -2.00236 -0.8957 -2.04216 0.442826
lowerback 4.16644 3.92697 -3.27838
upperback 2.44447 5.10631 -3.31957
thorax 0.205468 2.5415 -1.78011
lowerneck 0.640414 -4.62209 -5.87128
upperneck 9.99422 -6.03064 -0.00023374
head 3.30913 -3.19536 0.842611
rclavicle -6.42074e-014 -7.95139e-015
rhumerus 56.1825 -29.5577 -30.6766
rradius 61.4776
rwrist -62.5106
rhand -26.6926 7.74246
rfingers 7.12502
rthumb -0.123207 -22.2373
lclavicle -6.42074e-014 -7.95139e-015
lhumerus -47.5032 -44.1819 99.7805
lradius 106.297
lwrist 35.3574
lhand -11.3562 26.9659
lfingers 7.12502
lthumb 14.6774 56.4264
rfemur -6.45606 3.97071 19.3413
rtibia 21.3328
rfoot -13.3485 -12.6765
rtoes -9.75538
lfemur -2.82483 -1.77314 -18.7564
ltibia 19.3881
lfoot -16.6844 13.7125
ltoes -13.0182
363
root -0.474585 18.0535 -1.9999 -0.962133 -2.09055 0.444769
lowerback 4.23849 3.96795 -3.17514
upperback 2.46134 5.16132 -3.34056
thorax 0.19409 2.57046 -1.86538
lowerneck 0.551457 -4.63513 -5.84968
upperneck 10.18 -6.04802 0.0818978
head 3.39352 -3.20352 0.860781
rclavicle 2.44505e-014 -2.06736e-014
rhumerus 56.1366 -29.5645 -30.6461
rradius 61.3707
rwrist -62.4927
rhand -26.8032 7.58898
rfingers 7.12502
rthumb -0.22999 -22.3906
lclavicle 2.44505e-014 -2.06736e-014
lhumerus -47.4911 -44.3155 99.7292
lradius 106.358
lwrist 35.3784
lhand -11.3761 26.9122
lfingers 7.12502
lthumb 14.6581 56.3741
rfemur -6.37586 3.9989 19.3533
rtibia 21.3242
rfoot -13.359 -12.6388
rtoes -9.73962
lfemur -2.72779 -1.75754 -18.7594
ltibia 19.3785
lfoot -16.7199 13.7601
ltoes -13.146
364
root -0.474748 18.0537 -1.99861 -0.962951 -2.06612 0.477894
lowerback 4.26371 3.95794 -3.10677
upperback 2.45528 5.14892 -3.35959
thorax 0.181365 2.56537 -1.92409
lowerneck 0.606599 -4.62337 -5.87484
upperneck 10.1848 -6.04319 0.172467
head 3.38949 -3.19923 0.896178
rclavicle 6.2816e-014 -1.43125e-014
rhumerus 56.1746 -29.536 -30.6607
rradius 61.2694
rwrist -62.4427
rhand -26.7651 7.44693
rfingers 7.12502
rthumb -0.193228 -22.5327
lclavicle 6.2816e-014 -1.43125e-014
lhumerus -47.4575 -44.3499 99.6653
lradius 106.395
lwrist 35.3706
lhand -11.435 26.8314
lfingers 7.12502
lthumb 14.6014 56.2974
rfemur -6.35585 3.99146 19.3219
rtibia 21.3137
rfoot -13.3113 -12.7005
rtoes -9.97003
lfemur -2.71088 -1.74485 -18.7926
ltibia 19.3477
lfoot -16.7398 13.7156
ltoes -12.9532
365
root -0.474965 18.0544 -1.99692 -0.963219 -2.02789 0.511016
lowerback 4.26753 3.93592 -3.06723
upperback 2.45917 5.12116 -3.36815
thorax 0.187127 2.55202 -1.95351
lowerneck 0.921979 -4.67492 -5.86414
upperneck 9.849 -6.13745 0.187484
head 3.21731 -3.23998 0.907626
rclavicle 1.0635e-014 0
rhumerus 56.2087 -29.5111 -30.6646
rradius 61.2181
rwrist -62.4129
rhand -26.6434 7.42492
rfingers 7.12502
rthumb -0.0756421 -22.5548
lclavicle 1.0635e-014 0
lhumerus -47.4049 -44.3209 99.6275
lradius 106.373
lwrist 35.3022
lhand -11.5069 26.7569
lfingers 7.12502
lthumb 14.5321 56.2279
rfemur -6.35242 3.98016 19.2907
rtibia 21.3306
rfoot -13.3441 -12.7462
rtoes -10.0344
lfemur -2.70518 -1.78804 -18.8275
ltibia 19.3303
lfoot -16.8213 13.6651
ltoes -12.5881
366
root -0.475142 18.055 -1.99681 -0.915405 -1.93876 0.509884
lowerback 4.24901 3.90588 -2.98663
upperback 2.45722 5.08532 -3.38108
thorax 0.203045 2.53512 -2.0082
lowerneck 0.990449 -4.73611 -5.80432
upperneck 9.73978 -6.22414 0.163497
head 3.16626 -3.27991 0.889806
rclavicle 8.54774e-015 1.98785e-014
rhumerus 56.2271 -29.5276 -30.6517
rradius 61.1864
rwrist -62.3728
rhand -26.6589 7.41821
rfingers 7.12502
rthumb -0.0906068 -22.5615
lclavicle 8.54774e-015 1.98785e-014
lhumerus -47.3179 -44.3544 99.5475
lradius 106.387
lwrist 35.3205
lhand -11.531 26.8054
lfingers 7.12502
lthumb 14.5089 56.2781
rfemur -6.4139 3.9498 19.2884
rtibia 21.3659
rfoot -13.3568 -12.8117
rtoes -10.3164
lfemur -2.75771 -1.85474 -18.8268
ltibia 19.2938
lfoot -16.7258 13.6632
ltoes -12.8234
367
root -0.47628 18.0556 -1.99815 -0.802766 -1.83081 0.539282
lowerback 4.19053 3.8565 -2.98138
upperback 2.41883 5.02137 -3.3924
thorax 0.19661 2.50344 -2.01727
lowerneck 0.905102 -4.74569 -5.75931
upperneck 9.83116 -6.2352 0.202389
head 3.21374 -3.28407 0.891223
rclavicle 8.54774e-015 4.29375e-014
rhumerus 56.3297 -29.5122 -30.7071
rradius 61.1377
rwrist -62.2727
rhand -26.6223 7.29683
rfingers 7.12502
rthumb -0.0552866 -22.6829
lclavicle 8.54774e-015 4.29375e-014
lhumerus -47.2833 -44.3387 99.4761
lradius 106.408
lwrist 35.384
lhand -11.5325 26.9066
lfingers 7.12502
lthumb 14.5075 56.3794
rfemur -6.53995 3.87821 19.2517
rtibia 21.3849
rfoot -13.3058 -12.8732
rtoes -10.3731
lfemur -2.87546 -1.92419 -18.8533
ltibia 19.2333
lfoot -16.6414 13.6774
ltoes -13.0205
368
root -0.474512 18.0564 -1.99434 -0.793365 -1.81314 0.640936
lowerback 4.15786 3.84131 -3.03696
upperback 2.42023 5.00106 -3.41043
thorax 0.212945 2.49272 -2.00183
lowerneck 0.861463 -4.7462 -5.68315
upperneck 9.89081 -6.23279 0.182655
head 3.23822 -3.2817 0.870036
rclavicle 3.52843e-014 1.51076e-014
rhumerus 56.4348 -29.4886 -30.7386
rradius 61.1092
rwrist -62.2163
rhand -26.5388 7.1948
rfingers 7.12502
rthumb 0.0253847 -22.7849
lclavicle 3.52843e-014 1.51076e-014
lhumerus -47.2422 -44.3309 99.4063
lradius 106.396
lwrist 35.414
lhand -11.473 26.9702
lfingers 7.12502
lthumb 14.5648 56.4389
rfemur -6.5446 3.80154 19.128
rtibia 21.4047
rfoot -13.3068 -12.8399
rtoes -10.247
lfemur -2.83797 -1.88926 -18.9657
ltibia 19.1583
lfoot -16.6231 13.6137
ltoes -12.9079
